{"glyphs":{":":{"x_min":0,"x_max":250,"ha":250,"o":"m 125 459 q 148 459 165 442 q 182 426 182 402 q 182 378 165 362 q 148 345 125 345 q 101 345 84 362 q 68 378 68 402 q 68 426 84 442 q 101 459 125 459 z m 125 101 q 148 101 165 84 q 182 68 182 44 q 182 21 165 4 q 148 -13 125 -13 q 101 -13 84 4 q 68 21 68 44 q 68 68 84 84 q 101 101 125 101 z"},"$":{"x_min":0,"x_max":500,"ha":500,"o":"m 74 191 l 76 100 q 106 70 139 55 q 172 41 224 37 l 224 314 q 134 325 101 342 q 67 358 49 392 q 30 425 30 476 q 30 560 79 615 q 128 669 224 685 l 222 751 l 265 751 q 262 713 261 687 q 316 684 353 674 q 390 665 426 646 l 429 639 q 420 593 415 517 l 386 517 l 378 604 q 352 628 330 637 q 308 646 261 650 l 261 392 q 368 377 400 361 q 433 346 453 312 q 473 277 473 228 q 473 173 448 124 q 422 75 380 46 q 337 17 261 3 q 261 -61 263 -99 l 220 -99 q 223 -60 224 1 q 158 3 120 12 q 82 20 28 42 q 41 109 43 191 z m 224 649 q 183 643 159 626 q 135 610 121 580 q 107 551 107 511 q 107 455 139 427 q 163 406 224 395 z m 261 40 q 311 49 336 68 q 361 86 377 118 q 392 151 392 190 q 392 225 380 249 q 368 272 344 286 q 321 299 261 311 z"},"?":{"x_min":0,"x_max":444,"ha":444,"o":"m 46 549 l 84 665 q 114 683 146 692 q 177 701 210 701 q 296 701 347 656 q 397 610 397 540 q 397 511 388 484 q 379 458 361 435 q 343 412 285 358 q 235 312 225 299 q 207 278 199 259 q 194 247 194 233 q 194 209 216 183 l 195 167 q 170 186 161 204 q 151 223 151 246 q 151 270 162 293 q 173 316 217 367 q 274 433 290 463 q 305 494 305 522 q 305 569 270 601 q 235 633 182 633 q 167 633 151 629 q 135 625 118 616 q 91 579 74 540 l 49 543 z m 199 101 q 223 101 239 84 q 256 67 256 44 q 256 21 239 4 q 223 -13 199 -13 q 175 -13 159 4 q 142 21 142 44 q 142 67 159 84 q 175 101 199 101 z"},"<":{"x_min":0,"x_max":606,"ha":606,"o":"m 549 164 l 549 90 l 57 313 l 57 375 l 549 598 l 549 524 l 156 344 z"},"'":{"x_min":0,"x_max":208,"ha":208,"o":"m 86 406 l 72 625 q 71 645 71 657 q 71 678 80 690 q 90 701 104 701 q 118 701 127 690 q 136 679 136 656 q 136 645 135 625 l 121 406 q 119 385 103 385 q 88 385 86 406 z"},"=":{"x_min":0,"x_max":606,"ha":606,"o":"m 57 394 l 57 461 l 549 461 l 549 394 z m 57 227 l 57 294 l 549 294 l 549 227 z"},"a":{"x_min":0,"x_max":500,"ha":500,"o":"m 70 336 l 70 369 l 70 403 l 123 433 q 159 454 186 461 q 213 469 244 469 q 312 469 353 439 q 394 409 402 362 q 408 327 410 188 q 411 56 416 42 q 420 29 440 29 l 478 29 l 478 -3 q 422 0 400 0 q 373 0 327 -3 l 328 40 q 328 61 327 83 l 226 5 q 212 -5 199 -9 q 186 -13 163 -13 q 100 -13 66 18 q 33 49 33 101 q 33 150 57 187 q 81 224 124 242 q 168 259 327 288 q 326 350 300 380 q 267 419 205 419 q 182 419 161 413 q 141 407 123 396 q 109 361 97 329 z m 327 259 q 191 229 155 204 q 118 178 118 125 q 118 88 139 67 q 160 45 193 45 q 230 45 263 65 q 297 86 327 126 l 326 235 z"},"L":{"x_min":0,"x_max":611,"ha":611,"o":"m 217 44 q 265 42 310 42 q 402 42 454 47 q 490 51 528 61 l 558 176 l 589 176 q 577 83 570 3 q 526 -4 450 -4 l 218 0 q 171 0 72 -5 l 72 21 q 111 38 118 57 q 125 77 125 212 l 125 480 q 125 627 118 644 q 111 661 78 661 l 25 661 l 25 691 q 141 688 179 688 q 230 688 317 691 l 317 661 l 256 661 q 230 661 224 646 q 217 631 217 522 l 217 211 l 218 73 z"},"3":{"x_min":0,"x_max":500,"ha":500,"o":"m 31 509 l 58 628 q 89 665 131 683 q 174 701 228 701 q 310 701 357 659 q 405 616 405 554 q 405 512 385 475 q 364 439 301 387 q 333 387 366 375 q 412 357 435 323 q 459 289 459 240 q 459 142 375 64 q 290 -13 173 -13 q 143 -13 113 -7 q 83 0 53 12 q 43 71 14 158 l 41 169 q 71 99 90 77 q 109 55 139 42 q 169 29 212 29 q 285 29 326 74 q 367 119 367 201 q 367 270 333 307 q 298 345 241 345 q 197 345 148 320 l 141 325 l 150 381 q 176 378 189 378 q 249 378 286 415 q 324 452 324 512 q 324 567 291 600 q 258 633 205 633 q 170 633 137 617 q 105 602 89 583 q 83 574 73 543 l 62 509 z"},";":{"x_min":0,"x_max":250,"ha":250,"o":"m 143 459 q 167 459 184 442 q 200 426 200 402 q 200 378 184 362 q 167 345 143 345 q 120 345 103 362 q 86 378 86 402 q 86 426 103 442 q 120 459 143 459 z m 195 135 l 209 120 q 182 53 149 -2 q 116 -57 63 -124 l 21 -145 l 7 -134 q 55 -52 72 -4 q 89 44 96 104 q 152 118 195 135 z"},"J":{"x_min":0,"x_max":333,"ha":333,"o":"m -11 -193 q -10 -172 -10 -158 l -11 -117 l -1 -111 q 25 -128 53 -128 q 92 -128 107 -101 q 123 -75 123 41 l 123 462 q 123 623 114 642 q 104 661 56 661 l 23 661 l 23 691 q 76 688 157 688 q 247 688 309 691 l 309 661 l 277 659 q 237 655 229 650 q 221 645 218 632 q 215 619 215 548 l 215 128 q 215 23 202 -22 q 181 -94 124 -145 q 67 -196 15 -196 q 6 -196 -11 -193 z"},"V":{"x_min":0,"x_max":722,"ha":722,"o":"m 338 -11 q 316 54 293 111 l 118 548 q 81 643 74 652 q 68 661 32 661 l 12 661 l 12 691 q 89 688 143 688 q 199 688 278 691 l 278 656 l 230 656 q 205 656 198 652 q 190 647 190 637 q 190 631 193 623 l 256 456 l 388 119 l 517 440 q 582 604 582 631 q 582 654 555 655 l 535 656 l 493 661 l 493 691 q 558 688 600 688 q 644 688 710 691 l 710 661 l 690 661 q 667 661 656 650 q 646 639 619 572 l 454 170 q 408 57 388 -11 z"},"\"":{"x_min":0,"x_max":371,"ha":371,"o":"m 89 406 l 75 625 q 73 645 73 657 q 73 678 83 690 q 92 701 106 701 q 120 701 129 690 q 139 679 139 656 q 139 645 138 625 l 123 406 q 122 385 105 385 q 90 385 89 406 z m 249 406 l 234 625 q 232 645 232 657 q 232 678 242 690 q 251 701 265 701 q 279 701 289 690 q 298 679 298 656 q 298 645 297 625 l 283 406 q 281 385 265 385 q 250 385 249 406 z"},"7":{"x_min":0,"x_max":500,"ha":500,"o":"m 76 478 l 45 478 q 48 542 48 596 q 48 644 43 686 l 52 694 q 124 689 233 689 q 409 689 498 696 l 498 667 q 252 226 166 -2 q 134 0 120 0 q 99 0 72 -3 l 63 9 q 131 116 292 388 q 367 514 415 606 l 410 610 l 379 611 q 326 611 174 607 q 111 605 102 600 q 94 595 89 582 q 85 569 79 506 z"},"S":{"x_min":0,"x_max":525,"ha":525,"o":"m 469 659 q 455 608 454 524 l 420 524 l 420 563 q 420 601 410 615 q 400 628 357 644 q 313 659 266 659 q 188 659 143 620 q 98 580 98 518 q 98 479 116 451 q 135 423 166 410 q 197 398 297 389 q 398 379 433 363 q 469 347 490 311 q 511 275 511 227 q 511 128 429 58 q 347 -13 210 -13 q 164 -13 116 -4 q 68 6 20 24 q 29 83 28 175 l 62 175 l 62 150 q 62 103 66 92 q 71 81 89 68 q 116 49 153 39 q 190 29 233 29 q 326 29 376 72 q 426 116 426 183 q 426 222 409 249 q 392 276 361 289 q 331 302 248 309 q 137 318 98 335 q 58 353 36 391 q 13 429 13 485 q 13 580 82 641 q 151 701 272 701 q 321 701 370 691 q 419 680 469 659 z"},"}":{"x_min":0,"x_max":333,"ha":333,"o":"m 217 258 q 168 272 144 299 q 121 325 121 392 l 121 599 q 121 629 110 658 q 100 687 75 705 q 57 718 13 728 q 88 725 110 720 q 139 713 161 693 q 184 673 192 644 q 200 615 200 577 l 200 375 q 200 336 208 317 q 216 298 235 283 q 253 269 291 258 q 252 247 238 235 q 216 217 208 198 q 200 178 200 141 l 200 -73 q 200 -126 180 -158 q 161 -189 118 -204 q 99 -210 10 -214 l 26 -209 q 58 -202 80 -186 q 102 -169 109 -148 q 121 -118 121 -84 l 121 130 q 121 172 130 194 q 139 216 156 231 q 174 246 217 258 z"},"Z":{"x_min":0,"x_max":667,"ha":667,"o":"m 154 42 l 366 42 q 499 42 540 45 q 563 48 573 60 q 584 71 589 116 l 595 172 l 631 172 q 621 95 621 23 l 621 -3 q 562 -5 530 -5 q 503 -5 413 -2 q 317 0 233 0 q 97 0 22 -3 l 22 25 q 74 83 146 179 l 367 472 q 457 591 495 645 q 424 648 373 648 q 285 648 184 641 q 140 638 132 630 q 125 623 122 586 l 117 529 l 85 529 q 88 582 88 611 q 88 640 85 692 l 146 692 l 528 688 q 590 688 631 692 l 631 662 q 582 606 553 570 l 397 364 z"},"x":{"x_min":0,"x_max":516,"ha":516,"o":"m 25 421 l 118 467 q 149 455 169 432 q 201 396 273 278 q 336 362 402 459 q 421 456 434 456 q 444 456 477 459 l 477 430 q 451 429 435 415 q 408 392 294 250 q 360 153 405 95 q 435 55 454 45 q 465 39 491 39 l 491 10 q 446 0 393 -16 q 368 2 351 24 q 340 38 243 184 q 197 127 173 93 q 148 58 110 -3 q 89 0 73 0 q 55 0 25 -3 l 25 26 q 50 26 59 31 q 67 35 106 79 q 163 142 221 214 q 130 350 103 373 q 77 396 46 396 q 38 396 25 395 z"},")":{"x_min":0,"x_max":333,"ha":333,"o":"m 19 703 l 43 728 q 125 646 168 573 q 212 500 236 412 q 259 324 259 227 q 259 114 229 19 q 198 -77 151 -143 q 104 -209 40 -269 l 19 -242 q 76 -175 108 -109 q 140 -43 157 35 q 174 113 174 214 q 174 322 158 405 q 143 488 114 552 q 84 615 19 703 z"},"&":{"x_min":0,"x_max":778,"ha":778,"o":"m 426 354 l 456 399 q 506 396 534 396 l 595 397 q 686 400 746 400 q 738 359 735 331 q 683 339 594 342 q 600 316 600 299 q 600 259 581 218 q 562 176 517 128 q 567 92 612 76 q 657 60 693 60 q 712 60 750 83 l 757 60 q 695 16 670 -7 q 651 -13 630 -13 q 556 -13 456 68 q 399 22 354 4 q 308 -13 253 -13 q 163 -13 106 43 q 49 100 49 184 q 49 255 91 311 q 120 348 202 399 q 174 473 174 524 q 174 564 186 593 q 193 613 216 633 q 273 682 289 690 q 311 701 340 701 q 381 701 405 676 q 429 650 429 607 q 429 507 286 408 q 366 260 488 151 q 516 185 526 213 q 537 242 537 273 q 537 307 525 330 q 520 340 509 343 q 492 348 428 347 z m 269 441 q 359 514 359 583 q 359 614 344 633 q 329 651 306 651 q 278 651 261 629 q 244 607 244 562 q 244 513 269 441 z m 426 93 q 310 200 219 363 q 172 330 153 296 q 134 262 134 221 q 134 152 181 99 q 229 45 299 45 q 360 45 426 93 z"},"_":{"x_min":0,"x_max":500,"ha":500,"o":"m -6 -75 l 506 -75 l 506 -125 l -6 -125 z"},"v":{"x_min":0,"x_max":565,"ha":565,"o":"m 353 431 l 353 459 q 403 456 443 456 q 489 456 541 459 l 541 431 l 526 431 q 515 431 504 426 q 496 423 491 417 q 486 412 456 350 q 401 236 372 170 q 342 104 297 -8 l 247 -8 q 183 153 115 305 q 90 360 85 376 q 74 408 61 419 q 47 431 26 431 l 10 431 l 10 459 q 82 455 130 455 q 181 455 242 459 l 242 431 l 221 431 q 191 431 179 424 q 170 419 170 410 q 170 401 179 376 q 188 351 297 81 l 385 292 q 415 365 421 393 q 423 401 423 406 q 423 416 417 420 q 411 424 384 427 z"},"O":{"x_min":0,"x_max":786,"ha":786,"o":"m 23 344 q 23 505 126 603 q 230 701 402 701 q 571 701 667 610 q 763 519 763 368 q 763 206 652 96 q 541 -13 371 -13 q 265 -13 188 30 q 112 73 67 155 q 23 238 23 344 z m 122 384 q 122 274 160 192 q 198 110 261 70 q 325 29 406 29 q 482 29 539 63 q 595 98 628 167 q 660 236 660 334 q 660 438 624 511 q 588 585 526 622 q 463 659 378 659 q 300 659 243 626 q 187 594 154 531 q 122 467 122 384 z"},"(":{"x_min":0,"x_max":333,"ha":333,"o":"m 314 -245 l 290 -269 q 208 -188 165 -115 q 122 -42 98 46 q 74 134 74 232 q 74 345 105 440 q 136 536 183 602 q 229 668 293 728 l 314 701 q 258 633 225 568 q 193 502 176 424 q 159 346 159 244 q 159 136 175 53 q 190 -29 219 -93 q 249 -156 314 -245 z"},"C":{"x_min":0,"x_max":709,"ha":709,"o":"m 628 515 l 624 602 q 581 631 533 645 q 485 659 434 659 q 302 659 222 579 q 143 499 143 365 q 143 271 183 197 q 224 123 298 80 q 372 37 455 37 q 520 37 584 52 q 632 63 680 99 l 690 89 q 680 67 671 44 q 614 16 556 1 q 499 -13 440 -13 q 320 -13 229 33 q 138 80 89 161 q 40 243 40 346 q 40 449 89 531 q 139 612 229 656 q 319 701 450 701 q 519 701 611 679 q 657 668 686 663 q 664 610 661 515 z"},"W":{"x_min":0,"x_max":1000,"ha":1000,"o":"m 286 145 l 399 424 q 428 496 503 698 l 534 698 q 563 607 612 469 l 729 138 l 819 447 q 832 492 863 618 q 866 629 866 637 q 866 646 858 650 q 851 654 822 657 l 778 661 l 778 691 q 847 688 886 688 q 928 688 990 691 l 990 661 l 964 661 q 948 661 939 653 q 924 637 865 448 q 788 196 736 -11 l 686 -11 q 677 21 671 38 q 649 101 571 315 l 491 535 l 400 313 q 318 115 278 -11 l 229 -11 l 203 109 q 192 162 178 222 l 93 587 q 81 641 71 651 q 62 661 31 661 l 10 661 l 10 691 q 80 688 131 688 q 180 688 264 691 l 264 661 l 233 661 q 200 661 190 655 q 180 649 180 636 q 180 628 183 618 l 216 456 z"},"A":{"x_min":0,"x_max":778,"ha":778,"o":"m 512 231 l 230 231 l 197 152 q 164 74 164 57 q 164 45 170 41 q 176 36 201 33 l 248 27 l 248 -3 q 201 0 143 0 q 72 0 19 -3 l 19 27 l 34 28 q 68 29 78 35 q 88 41 99 65 q 134 135 170 217 l 304 521 q 358 642 377 697 l 411 697 l 658 122 q 683 63 691 52 q 699 40 710 34 q 721 29 758 27 l 758 -3 q 695 0 637 0 q 583 0 494 -3 l 494 27 l 542 30 q 568 32 573 36 q 581 41 581 49 q 581 58 566 95 z m 248 271 l 494 271 l 371 565 z"},"f":{"x_min":0,"x_max":333,"ha":333,"o":"m 180 384 l 180 194 q 180 57 188 41 q 196 25 237 25 l 280 25 l 280 -3 q 200 0 166 0 l 11 -3 l 11 25 l 44 25 q 82 25 89 40 q 98 61 98 194 l 98 384 l 28 379 l 28 399 q 62 417 98 436 l 98 498 q 98 545 111 575 q 124 604 163 645 q 215 699 244 716 q 263 727 292 727 q 311 727 334 721 q 333 696 333 681 q 333 666 334 639 l 322 634 q 293 659 256 659 q 215 659 198 631 q 180 604 180 496 l 180 431 q 259 431 310 436 l 313 431 l 305 384 l 245 385 q 223 385 180 384 z"},"Q":{"x_min":0,"x_max":786,"ha":786,"o":"m 403 -13 q 459 -27 520 -52 q 646 -104 703 -104 q 722 -104 760 -94 l 760 -120 q 706 -148 679 -173 q 637 -168 603 -159 q 568 -150 499 -124 q 383 -82 344 -82 q 333 -82 320 -87 q 308 -92 258 -120 l 258 -87 q 341 -31 377 -13 q 267 -13 189 31 q 111 75 67 156 q 23 237 23 346 q 23 505 126 603 q 230 701 402 701 q 571 701 667 610 q 763 519 763 368 q 763 251 707 164 q 650 76 559 29 q 494 -4 403 -13 z m 126 385 q 126 275 164 194 q 201 112 264 72 q 327 31 408 31 q 483 31 540 65 q 596 100 628 168 q 660 237 660 335 q 660 439 625 512 q 589 585 527 622 q 465 659 380 659 q 302 659 246 626 q 190 594 158 531 q 126 468 126 385 z"},"w":{"x_min":0,"x_max":834,"ha":834,"o":"m 254 -8 l 205 -8 q 164 133 112 300 l 81 398 q 74 414 62 423 q 49 431 33 431 l 9 431 l 9 459 q 86 456 128 456 q 168 456 248 459 l 248 431 l 221 431 q 191 431 180 424 q 171 419 171 409 q 171 385 254 106 l 360 336 q 384 390 415 467 l 439 467 q 460 408 482 353 l 583 98 l 658 298 q 679 357 686 387 q 688 399 688 406 q 688 417 678 424 q 668 431 647 431 l 615 431 l 615 459 q 679 456 728 456 q 771 456 811 459 l 811 431 l 789 431 q 772 431 757 414 q 742 396 673 234 q 615 99 583 -8 l 536 -8 q 514 53 464 178 l 402 335 q 334 190 292 91 q 272 46 254 -8 z"},"-":{"x_min":0,"x_max":333,"ha":333,"o":"m 27 195 l 21 202 q 36 239 46 272 q 117 269 165 269 q 204 269 308 272 l 312 265 q 296 228 288 195 q 221 199 165 199 q 102 199 27 195 z"},"E":{"x_min":0,"x_max":611,"ha":611,"o":"m 222 328 l 222 208 l 222 140 q 222 75 224 45 q 295 40 376 40 q 431 40 468 45 q 492 48 519 58 q 531 101 544 165 l 577 165 q 563 58 563 22 l 564 0 q 508 -5 454 -5 l 377 -3 q 250 0 191 0 q 134 0 39 -3 l 39 27 l 54 27 q 97 27 108 36 q 119 44 122 75 q 126 105 126 210 l 126 479 q 126 544 123 586 q 120 628 116 636 q 112 645 105 649 q 99 653 63 657 l 26 661 l 26 691 l 79 691 l 130 689 q 174 688 196 688 l 384 690 l 473 691 q 518 691 564 687 q 546 629 544 537 l 511 537 q 511 591 505 626 q 448 648 364 648 q 297 648 224 642 q 224 596 223 550 l 222 475 l 222 376 q 270 373 307 373 q 423 373 439 381 q 454 389 454 431 l 454 463 l 487 463 q 484 389 484 345 q 484 299 487 236 l 454 236 l 454 264 q 454 311 436 322 q 417 332 307 332 q 266 332 222 328 z"},"s":{"x_min":0,"x_max":424,"ha":424,"o":"m 74 146 l 74 114 q 74 76 81 67 q 94 51 131 37 q 167 22 207 22 q 257 22 289 49 q 320 76 320 114 q 320 144 302 162 q 283 180 231 190 q 134 210 103 225 q 71 239 56 264 q 40 288 40 323 q 40 388 87 428 q 134 469 221 469 q 289 469 357 441 q 353 408 351 330 l 322 330 q 321 373 312 387 q 301 405 271 419 q 242 434 208 434 q 164 434 137 411 q 110 389 110 354 q 110 322 131 305 q 152 288 248 269 q 318 255 340 243 q 363 230 376 206 q 390 181 390 148 q 390 83 334 35 q 277 -13 183 -13 q 123 -13 48 6 q 35 9 35 16 l 37 23 q 39 30 40 49 q 44 96 44 123 l 44 146 z"},">":{"x_min":0,"x_max":606,"ha":606,"o":"m 57 164 l 450 344 l 57 524 l 57 598 l 549 375 l 549 313 l 57 90 z"},"l":{"x_min":0,"x_max":291,"ha":291,"o":"m 194 722 q 186 579 186 463 l 186 212 q 186 62 192 42 q 196 32 225 29 l 266 25 l 266 -3 q 213 0 165 0 q 111 0 24 -3 l 24 25 l 66 28 q 94 31 98 42 q 104 62 104 216 l 104 465 l 104 559 l 102 623 q 102 647 97 652 q 89 660 64 660 l 24 660 l 24 689 q 125 699 186 728 z"},"8":{"x_min":0,"x_max":500,"ha":500,"o":"m 160 354 l 160 357 q 103 391 80 421 q 49 462 49 518 q 49 598 105 649 q 161 701 254 701 q 338 701 386 661 q 434 621 434 560 q 434 514 408 475 q 383 436 312 393 l 312 389 q 403 346 432 308 q 461 270 461 212 q 461 120 392 53 q 322 -13 223 -13 q 135 -13 80 38 q 25 89 25 167 q 25 286 160 354 z m 275 405 q 322 433 343 466 q 364 500 364 544 q 364 601 332 634 q 300 666 246 666 q 191 666 159 636 q 126 606 126 558 q 126 511 154 479 q 181 448 275 405 z m 200 339 q 147 308 125 277 q 95 232 95 172 q 95 104 135 63 q 174 22 237 22 q 303 22 343 62 q 384 102 384 166 q 384 225 347 257 q 311 290 200 339 z"},"\\":{"x_min":0,"x_max":606,"ha":606,"o":"m 501 -214 l 463 -212 q 457 -211 429 -214 q 419 -183 407 -155 l 66 659 q 52 692 36 724 l 76 724 q 83 724 112 728 q 122 695 135 662 l 469 -142 q 486 -182 501 -214 z"},"e":{"x_min":0,"x_max":479,"ha":479,"o":"m 121 233 q 123 137 170 87 q 217 37 293 37 q 327 37 361 48 q 395 60 428 82 l 436 75 l 420 34 q 380 10 337 -1 q 294 -13 249 -13 q 149 -13 89 50 q 28 112 28 220 q 28 302 62 362 q 84 401 145 435 q 206 469 263 469 q 349 469 400 418 q 450 367 450 276 l 449 247 q 417 239 388 237 q 335 233 243 233 z m 122 270 q 198 266 289 266 q 326 266 360 270 l 360 297 q 360 340 343 378 q 332 402 305 418 q 278 434 243 434 q 188 434 156 394 q 123 354 122 270 z"},"b":{"x_min":0,"x_max":553,"ha":553,"o":"m 7 663 l 7 690 q 49 695 95 705 q 126 711 161 725 q 167 727 170 727 q 181 727 181 708 l 178 684 q 175 656 174 643 q 173 580 173 471 l 173 367 l 232 427 q 251 446 282 457 q 313 469 349 469 q 427 469 478 415 q 529 360 529 271 q 529 221 511 175 q 493 128 468 99 q 456 85 403 47 q 349 8 333 0 q 304 -13 264 -13 q 227 -13 198 -3 q 169 6 137 30 l 98 -6 l 82 0 q 91 76 91 159 l 91 469 q 91 541 86 616 q 84 650 78 657 q 72 663 49 663 z m 173 156 q 173 103 177 95 q 185 79 219 58 q 253 37 294 37 q 366 37 405 94 q 444 151 444 233 q 444 318 406 363 q 368 407 304 407 q 262 407 226 383 q 191 358 178 326 q 173 313 173 267 z"},"%":{"x_min":0,"x_max":840,"ha":840,"o":"m 246 393 q 187 393 147 435 q 108 477 108 545 q 108 618 152 666 q 197 714 258 714 q 317 714 357 672 q 397 630 397 562 q 397 487 354 440 q 310 393 246 393 z m 250 417 q 284 417 306 449 q 327 482 327 560 q 327 630 308 658 q 289 687 256 687 q 222 687 203 658 q 178 619 178 542 q 178 474 198 446 q 217 417 250 417 z m 196 -33 q 213 -6 229 24 l 562 668 q 578 698 585 721 q 605 718 616 718 l 635 719 q 616 689 604 667 l 263 14 q 250 -11 241 -33 q 227 -32 219 -32 q 212 -32 196 -33 z m 580 0 q 521 0 482 42 q 442 84 442 152 q 442 225 487 273 q 531 321 592 321 q 652 321 692 279 q 731 237 731 169 q 731 94 688 47 q 645 0 580 0 z m 584 24 q 619 24 640 56 q 662 89 662 167 q 662 237 643 265 q 624 294 591 294 q 556 294 538 265 q 512 226 512 149 q 512 81 532 52 q 552 24 584 24 z"},"m":{"x_min":0,"x_max":883,"ha":883,"o":"m 188 381 l 253 439 q 269 454 287 459 q 312 468 337 468 q 392 468 426 448 q 459 429 487 377 l 550 435 q 566 450 589 458 q 620 468 649 468 q 693 468 729 448 q 764 427 781 395 q 799 362 799 306 l 797 115 q 797 51 805 39 q 812 28 842 26 l 878 25 l 878 -3 l 854 -2 q 798 1 778 1 q 747 1 706 -3 q 713 86 713 206 q 713 307 704 338 q 695 370 670 388 q 646 406 608 406 q 565 406 535 384 q 505 361 498 329 q 493 309 493 157 q 493 68 494 55 q 496 43 502 38 q 509 33 544 29 l 577 25 l 577 -3 q 491 1 450 1 q 418 1 325 -3 l 325 25 l 358 25 q 387 25 396 33 q 405 42 406 72 q 410 152 410 239 q 410 317 400 346 q 389 376 364 393 q 339 410 304 410 q 266 410 235 389 q 205 368 193 338 q 186 318 186 222 q 186 117 188 68 q 189 45 195 39 q 202 32 237 29 l 271 25 l 271 -3 q 210 0 156 0 q 94 0 22 -3 l 22 25 l 59 25 q 91 25 97 42 q 104 59 104 225 q 104 347 102 369 q 101 391 94 397 q 87 403 52 403 l 22 403 l 22 430 q 94 439 146 457 l 181 470 q 190 470 190 458 l 189 441 q 188 414 188 381 z"},"#":{"x_min":0,"x_max":606,"ha":606,"o":"m 529 285 l 529 217 l 423 217 l 392 0 l 323 0 l 355 217 l 220 217 l 188 0 l 120 0 l 153 217 l 51 217 l 51 285 l 163 285 l 184 418 l 79 418 l 79 486 l 193 486 l 224 688 l 291 688 l 261 486 l 395 486 l 424 688 l 493 688 l 463 486 l 556 486 l 556 418 l 453 418 l 434 285 z m 385 418 l 250 418 l 231 285 l 365 285 z"},",":{"x_min":0,"x_max":250,"ha":250,"o":"m 195 135 l 209 120 q 181 52 149 -2 q 116 -57 62 -124 l 21 -145 l 7 -130 q 49 -64 69 -11 q 89 42 96 104 q 152 118 195 135 z"},"n":{"x_min":0,"x_max":582,"ha":582,"o":"m 177 375 l 250 441 q 264 453 278 458 q 311 469 343 469 q 395 469 433 448 q 471 426 488 392 q 504 358 504 286 l 502 132 q 502 53 509 41 q 518 25 545 25 l 580 25 l 580 -3 q 528 0 490 0 q 453 0 410 -3 q 419 92 419 254 q 419 319 408 347 q 396 374 369 391 q 342 407 304 407 q 257 407 224 383 q 191 359 183 331 q 178 312 178 231 q 178 142 180 65 q 180 42 187 36 q 199 25 227 25 l 261 25 l 261 -3 q 179 0 130 0 q 78 0 12 -3 l 12 25 l 47 25 q 83 25 90 42 q 96 59 96 245 q 96 328 94 375 q 93 391 86 397 q 79 403 47 403 l 12 403 l 12 431 q 54 436 87 444 q 121 452 162 469 q 167 471 170 471 q 178 471 178 460 l 178 441 z"},"h":{"x_min":0,"x_max":582,"ha":582,"o":"m 177 376 l 241 432 q 264 453 285 461 q 307 469 338 469 q 392 469 432 447 q 472 425 487 391 q 502 357 502 276 l 500 131 q 500 83 503 54 q 505 42 511 37 q 518 31 540 29 l 577 25 l 577 -3 q 530 0 485 0 q 446 0 408 -3 q 417 119 417 238 q 417 317 407 346 q 397 374 371 391 q 345 407 306 407 q 265 407 232 388 q 199 369 186 343 q 177 325 177 257 l 177 172 q 177 56 183 44 q 188 32 222 29 l 264 25 l 264 -3 q 188 0 142 0 q 93 0 15 -3 l 15 25 l 46 29 q 75 32 82 37 q 89 42 92 58 q 95 84 95 176 l 95 506 q 95 636 88 652 q 84 663 49 663 l 15 663 l 15 692 q 91 700 136 714 l 176 728 q 184 728 184 718 l 183 698 l 180 610 q 177 543 177 507 z"},"z":{"x_min":0,"x_max":500,"ha":500,"o":"m 26 -3 l 21 20 q 68 71 149 171 q 259 307 346 423 q 224 422 162 418 q 119 416 113 410 q 106 404 101 369 l 94 327 l 65 327 q 71 374 71 410 l 70 455 l 74 459 q 223 456 300 456 q 382 456 461 459 l 461 433 q 436 405 411 375 l 334 279 q 286 219 146 35 l 208 34 q 310 34 384 41 q 413 44 421 53 q 429 62 438 113 l 443 142 l 472 142 q 460 52 461 2 q 427 -2 386 -2 l 209 0 q 100 0 26 -3 z"},"B":{"x_min":0,"x_max":611,"ha":611,"o":"m 376 390 q 481 383 527 341 q 574 299 574 226 q 574 132 496 65 q 418 -3 298 -3 l 259 -2 q 210 0 177 0 q 152 0 117 -2 l 76 -3 l 76 19 q 106 33 112 41 q 118 49 119 67 q 122 125 122 199 l 122 503 q 122 625 113 642 q 103 661 61 661 l 28 661 l 28 691 l 68 691 l 113 689 q 148 688 168 688 q 199 688 290 690 l 361 692 q 445 692 487 663 q 539 625 539 558 q 539 502 502 460 q 465 418 376 390 z m 214 403 q 238 402 259 402 q 356 402 398 436 q 440 471 440 536 q 440 592 405 622 q 370 652 292 652 q 258 652 218 646 q 214 586 214 465 z m 214 46 q 259 39 289 39 q 375 39 423 85 q 471 131 471 210 q 471 263 450 298 q 429 332 391 348 q 353 364 270 364 q 245 364 214 362 l 214 189 l 214 127 q 216 94 216 77 q 216 63 214 46 z"},"K":{"x_min":0,"x_max":726,"ha":726,"o":"m 308 381 l 641 71 l 671 42 q 680 33 690 30 q 699 27 721 27 l 721 -3 q 681 0 651 0 q 619 0 582 -3 l 245 316 q 228 332 224 332 q 214 332 214 313 l 214 164 q 214 55 218 45 q 226 27 271 27 l 308 27 l 308 -3 q 228 0 167 0 q 102 0 28 -3 l 28 27 l 67 27 q 106 27 114 42 q 122 56 122 166 l 122 493 q 122 627 114 644 q 106 661 67 661 l 28 661 l 28 691 q 117 688 157 688 q 186 688 308 691 l 308 661 l 269 659 q 236 658 227 650 q 218 643 216 620 q 214 598 214 491 l 214 359 l 221 359 q 261 392 290 419 q 318 446 384 514 l 523 657 l 523 691 q 577 688 612 688 q 648 688 693 691 l 693 661 l 667 661 q 631 661 607 647 q 583 634 494 553 z"},"R":{"x_min":0,"x_max":668,"ha":668,"o":"m 385 349 q 433 280 504 189 l 598 67 q 623 36 631 32 q 639 27 648 27 l 661 27 l 661 -3 q 620 0 590 0 q 562 0 531 -3 l 358 230 q 310 294 255 356 l 260 373 q 288 370 302 370 q 383 370 429 412 q 476 454 476 524 q 476 587 437 623 q 397 658 324 658 q 272 658 221 639 q 215 562 215 473 l 215 237 q 215 65 223 46 q 231 27 277 27 l 315 27 l 315 -3 q 234 0 181 0 q 139 0 29 -3 l 29 27 l 65 27 q 107 27 115 46 q 123 64 123 238 l 123 473 q 123 625 114 643 q 105 661 55 661 l 29 661 l 29 692 q 120 688 167 688 q 200 688 260 690 q 331 693 361 693 q 446 693 490 675 q 533 657 556 624 q 579 590 579 543 q 579 474 529 421 q 479 369 385 349 z"},"T":{"x_min":0,"x_max":613,"ha":613,"o":"m 358 647 q 353 574 353 493 l 353 214 q 353 59 361 43 q 369 27 417 27 l 453 27 l 453 -3 q 367 0 307 0 q 246 0 161 -3 l 161 27 l 202 27 q 234 27 244 36 q 254 44 256 69 q 261 126 261 217 l 261 496 q 261 578 258 647 l 208 647 q 87 647 75 641 q 63 636 59 598 l 52 532 l 21 532 l 22 590 q 22 625 17 691 q 280 688 327 688 l 597 691 q 587 609 586 532 l 556 532 l 551 596 q 548 629 542 635 q 537 642 519 643 q 465 647 396 647 z"},"P":{"x_min":0,"x_max":604,"ha":604,"o":"m 217 638 q 214 568 214 488 l 214 209 q 214 62 223 45 q 231 27 280 27 l 314 27 l 314 -3 q 228 0 178 0 q 134 0 22 -3 l 22 27 l 66 27 q 97 27 105 35 q 114 42 117 66 q 119 89 122 208 l 122 468 l 121 569 q 120 632 107 646 q 95 661 46 661 l 22 661 l 22 691 q 83 689 177 689 q 232 689 299 692 q 344 694 367 694 q 485 694 539 651 q 592 608 592 535 q 592 481 561 432 q 530 383 474 354 q 417 324 354 324 q 324 324 280 333 l 271 370 q 313 359 342 359 q 410 359 449 400 q 489 440 489 511 q 489 580 447 618 q 404 656 321 656 q 273 656 217 638 z"},"|":{"x_min":0,"x_max":606,"ha":606,"o":"m 278 -229 l 278 728 l 342 728 l 342 -229 z"},"t":{"x_min":0,"x_max":326,"ha":326,"o":"m 181 380 l 181 189 q 181 114 186 93 q 191 72 206 61 q 221 49 244 49 q 258 49 271 54 q 285 60 298 71 l 312 54 l 265 -2 q 249 -7 234 -10 q 220 -13 206 -13 q 170 -13 145 0 q 120 13 109 33 q 98 54 98 96 l 99 190 l 99 376 q 62 376 21 373 l 21 394 q 63 410 99 427 q 99 497 95 579 q 152 603 177 617 l 189 607 q 186 569 181 427 q 241 427 278 429 l 317 431 l 312 380 l 292 381 l 198 380 z"},"M":{"x_min":0,"x_max":946,"ha":946,"o":"m 739 586 l 594 284 q 512 114 460 -13 l 440 -13 q 422 31 337 210 l 162 572 l 162 195 q 162 63 173 45 q 183 27 238 27 l 256 27 l 256 -3 q 188 0 146 0 q 115 0 23 -3 l 23 27 l 55 27 q 87 27 98 37 q 108 46 111 70 q 117 139 117 218 l 117 494 q 117 594 113 626 q 111 643 98 652 q 86 661 49 661 l 23 661 l 23 691 q 108 688 130 688 q 158 688 209 691 q 268 560 345 402 l 474 138 l 592 382 q 655 511 735 691 q 796 688 821 688 q 850 688 925 691 l 925 661 l 893 661 q 850 661 841 646 q 831 631 831 539 l 831 182 q 831 62 841 45 q 851 27 897 27 l 925 27 l 925 -3 q 857 0 795 0 q 727 0 652 -3 l 652 27 l 684 27 q 723 27 731 44 q 739 61 739 189 z"},"g":{"x_min":0,"x_max":556,"ha":556,"o":"m 437 378 q 448 347 448 327 q 448 283 422 243 q 396 203 347 178 q 298 153 241 153 l 218 154 q 186 130 177 118 q 169 106 169 95 q 169 77 188 66 q 207 55 266 55 q 288 55 330 57 q 390 59 417 59 q 456 59 476 47 q 497 34 511 3 q 526 -28 526 -67 q 526 -122 493 -172 q 459 -222 396 -252 q 333 -282 250 -282 q 149 -282 95 -239 q 41 -195 41 -131 q 41 -91 69 -51 q 120 -27 155 -2 q 115 11 103 22 q 92 33 92 50 q 92 70 103 90 q 109 103 135 120 l 183 154 q 124 168 98 195 q 64 231 64 288 q 64 337 89 377 q 115 418 164 441 q 227 471 286 471 q 323 471 351 461 q 379 452 408 428 l 449 428 q 513 428 548 432 l 553 422 q 539 401 527 378 z m 363 301 q 363 362 332 399 q 300 436 253 436 q 206 436 177 406 q 149 375 149 322 q 149 257 180 220 q 211 183 258 183 q 305 183 334 214 q 363 245 363 301 z m 230 -10 q 195 -10 183 -18 q 142 -44 133 -61 q 118 -86 118 -125 q 118 -178 158 -212 q 197 -247 268 -247 q 322 -247 363 -227 q 404 -207 427 -172 q 449 -137 449 -100 q 449 -68 433 -44 q 417 -21 396 -14 q 384 -10 344 -10 z"},"j":{"x_min":0,"x_max":234,"ha":234,"o":"m 116 687 q 139 687 155 671 q 171 654 171 631 q 171 608 155 592 q 139 576 116 576 q 93 576 76 592 q 60 608 60 631 q 60 654 76 671 q 93 687 116 687 z m -3 403 l -3 431 q 65 438 119 456 l 162 471 q 170 471 170 461 l 169 452 q 168 443 165 380 q 159 252 159 166 l 160 41 q 160 -89 138 -151 q 116 -213 72 -248 q 28 -282 -17 -282 l -32 -281 l -42 -247 q -26 -250 -17 -250 q 6 -250 21 -239 q 44 -222 57 -188 q 70 -153 74 -31 q 78 90 78 229 q 78 376 72 389 q 67 403 32 403 z"},"i":{"x_min":0,"x_max":291,"ha":291,"o":"m 146 687 q 168 687 185 671 q 201 654 201 631 q 201 608 185 592 q 168 576 146 576 q 123 576 107 592 q 91 608 91 631 q 91 654 107 671 q 123 687 146 687 z m 185 471 l 197 463 q 193 427 192 383 q 189 240 189 172 q 189 109 193 64 q 195 46 203 40 q 210 33 238 29 l 271 25 l 271 -3 q 200 0 141 0 q 83 0 25 -3 l 25 25 l 67 29 q 91 31 97 38 q 103 45 104 85 q 106 147 106 256 q 106 332 104 373 q 103 388 95 395 q 88 401 62 401 l 25 401 l 25 430 q 84 438 113 446 q 141 453 185 471 z"},"y":{"x_min":0,"x_max":556,"ha":556,"o":"m 25 -265 l 48 -189 l 60 -189 q 73 -205 86 -212 q 99 -220 113 -220 q 143 -220 168 -191 q 193 -162 245 -28 q 223 29 159 188 l 113 300 l 77 386 q 60 431 25 431 l 6 431 l 6 459 q 57 456 96 456 q 126 456 237 459 l 237 431 l 201 431 q 182 431 174 425 q 165 418 165 409 q 165 401 174 375 q 224 240 291 84 q 355 227 403 358 q 417 397 417 405 q 417 421 384 426 l 348 431 l 348 459 q 405 456 450 456 q 493 456 536 459 l 536 431 l 519 431 q 507 431 496 425 q 484 418 477 406 q 461 381 386 216 q 366 171 282 -30 q 208 -199 198 -215 q 179 -248 149 -265 q 119 -282 84 -282 q 70 -282 55 -278 q 41 -273 25 -265 z"},"@":{"x_min":0,"x_max":747,"ha":747,"o":"m 660 184 l 710 184 q 679 127 650 98 q 600 45 536 16 q 472 -13 398 -13 q 297 -13 212 34 q 127 81 80 162 q 34 242 34 339 q 34 438 81 522 q 129 606 210 654 q 292 701 388 701 q 510 701 611 624 q 712 546 712 415 q 712 339 681 278 q 649 217 591 178 q 533 139 488 139 q 459 139 438 159 q 416 179 411 219 q 380 177 354 161 q 327 146 296 146 q 242 146 203 187 q 164 228 164 290 q 164 348 193 401 q 223 453 274 485 q 326 517 376 517 q 410 517 432 499 q 454 482 464 447 l 480 508 l 549 508 l 477 237 q 471 215 471 201 q 471 188 479 179 q 486 171 499 171 q 532 171 573 202 q 614 233 642 292 q 669 352 669 414 q 669 513 589 586 q 508 660 391 660 q 303 660 231 619 q 160 578 118 504 q 77 430 77 341 q 77 253 118 182 q 159 111 235 70 q 311 28 402 28 q 455 28 500 45 q 545 62 586 95 q 626 129 660 184 z m 442 414 q 442 449 426 468 q 410 487 385 487 q 354 487 319 461 q 285 436 259 377 q 232 319 232 267 q 232 227 254 201 q 276 175 305 175 q 333 175 362 199 q 391 224 416 291 q 442 358 442 414 z"},".":{"x_min":0,"x_max":250,"ha":250,"o":"m 125 101 q 148 101 165 84 q 182 68 182 44 q 182 21 165 4 q 148 -13 125 -13 q 101 -13 84 4 q 68 21 68 44 q 68 68 84 84 q 101 101 125 101 z"},"p":{"x_min":0,"x_max":601,"ha":601,"o":"m 189 370 l 257 431 q 283 454 301 459 q 330 469 369 469 q 456 469 509 415 q 563 361 563 276 q 563 234 551 193 q 539 151 521 125 q 503 99 481 82 q 474 76 422 43 l 402 29 q 365 3 343 -5 q 320 -13 291 -13 q 268 -13 242 -7 q 217 0 189 13 l 189 -56 q 189 -162 192 -206 q 193 -225 204 -233 q 215 -242 250 -242 l 276 -242 l 276 -269 q 184 -266 141 -266 q 93 -266 20 -269 l 20 -242 l 56 -242 q 93 -242 100 -226 q 107 -209 107 -54 l 107 246 q 107 324 103 367 q 101 387 94 394 q 86 400 58 400 l 20 400 l 20 431 q 88 438 153 458 l 183 470 q 191 470 191 457 l 189 405 z m 189 102 q 220 66 251 52 q 283 37 319 37 q 396 37 437 95 q 478 153 478 233 q 478 287 459 325 q 440 364 404 385 q 368 407 327 407 q 297 407 269 396 q 241 384 220 363 q 199 342 193 325 q 189 312 189 255 z"},"X":{"x_min":0,"x_max":667,"ha":667,"o":"m 295 345 l 222 467 q 152 583 109 625 q 85 647 59 647 q 50 647 28 645 l 28 675 l 172 698 q 196 679 213 657 q 229 635 272 563 l 355 423 l 538 691 l 639 691 l 639 661 l 620 661 q 600 661 589 654 q 578 647 523 577 q 418 443 377 384 l 538 126 q 586 47 598 37 q 609 27 631 27 l 651 27 l 651 -3 q 595 0 565 0 q 535 0 504 -3 l 321 305 q 281 253 212 146 q 144 40 121 -3 q 97 0 75 0 q 48 0 16 -3 l 16 27 l 38 27 q 58 27 71 39 q 83 51 178 182 z"},"*":{"x_min":0,"x_max":389,"ha":389,"o":"m 269 354 l 251 353 q 229 402 191 486 l 119 364 l 101 361 q 80 388 56 413 l 58 419 q 106 455 168 507 l 21 531 l 19 538 q 29 571 37 605 l 53 610 q 119 569 176 538 l 162 687 q 201 687 232 688 l 240 673 q 221 608 207 536 l 333 598 l 341 596 q 354 565 370 537 l 362 525 q 309 520 215 508 l 314 410 l 317 401 z"},"Y":{"x_min":0,"x_max":667,"ha":667,"o":"m 363 340 q 393 385 457 497 l 569 691 l 645 691 l 645 679 q 585 612 499 477 q 412 342 395 296 q 389 280 389 214 q 389 125 394 74 q 396 46 404 40 q 411 35 454 31 l 491 27 l 491 -3 q 406 0 358 0 l 201 -3 l 201 27 l 242 27 q 284 27 292 44 q 300 61 300 198 q 300 238 298 286 q 235 401 182 486 q 128 570 92 609 q 72 631 57 638 q 42 645 7 645 l 7 675 q 27 679 85 690 l 124 698 q 146 690 160 677 q 185 654 235 572 q 273 509 363 340 z"},"c":{"x_min":0,"x_max":444,"ha":444,"o":"m 396 66 l 409 54 l 389 23 q 355 5 320 -4 q 285 -13 249 -13 q 177 -13 127 14 q 77 42 49 93 q 22 145 22 216 q 22 279 43 326 q 64 373 102 399 q 140 425 196 451 q 236 469 286 469 q 323 469 350 463 q 377 457 409 441 q 396 376 396 312 l 365 312 l 365 336 q 365 368 356 381 q 347 394 314 406 q 282 419 244 419 q 178 419 143 379 q 107 338 107 258 q 107 155 160 93 q 207 37 282 37 q 311 37 339 44 q 368 52 396 66 z"},"!":{"x_min":0,"x_max":278,"ha":278,"o":"m 162 688 l 197 688 l 196 621 q 195 606 190 568 q 171 399 159 205 l 132 179 l 122 184 q 109 373 100 452 q 86 571 86 617 l 86 648 q 125 667 162 688 z m 138 101 q 162 101 178 84 q 195 68 195 44 q 195 21 178 4 q 162 -13 138 -13 q 114 -13 98 4 q 81 21 81 44 q 81 68 98 84 q 114 101 138 101 z"},"/":{"x_min":0,"x_max":606,"ha":606,"o":"m 36 -214 q 54 -176 68 -142 l 401 662 q 417 698 424 728 q 456 724 473 724 l 501 724 q 483 688 471 659 l 130 -155 q 117 -186 108 -214 l 72 -212 q 60 -212 36 -214 z"},"[":{"x_min":0,"x_max":333,"ha":333,"o":"m 97 -214 l 91 -208 q 93 -168 95 -42 l 98 233 q 98 608 91 721 l 97 728 q 148 724 184 724 q 240 724 271 727 l 283 727 q 293 727 295 724 q 297 721 297 704 q 297 692 294 690 q 292 688 263 688 q 207 685 198 679 q 188 673 185 663 q 182 652 179 515 q 177 377 177 256 q 177 132 179 -3 q 182 -139 185 -149 q 188 -160 199 -166 q 209 -173 263 -174 q 290 -174 294 -177 q 297 -179 297 -190 l 297 -201 q 297 -213 286 -213 l 271 -212 q 228 -210 187 -210 q 144 -210 97 -214 z"},"6":{"x_min":0,"x_max":500,"ha":500,"o":"m 387 704 l 422 688 l 422 679 q 335 656 272 608 q 209 560 174 495 q 139 431 131 341 l 186 382 q 213 404 236 411 q 258 419 291 419 q 374 419 421 370 q 467 320 467 230 q 467 129 401 58 q 334 -13 241 -13 q 149 -13 91 57 q 33 126 33 257 q 33 365 74 453 q 115 541 197 607 q 280 674 387 704 z m 253 361 q 215 361 183 342 q 150 324 136 296 q 125 275 125 218 q 125 121 166 67 q 200 22 256 22 q 311 22 344 64 q 382 113 382 198 q 382 278 347 319 q 311 361 253 361 z"},"r":{"x_min":0,"x_max":395,"ha":395,"o":"m 186 358 q 205 377 228 407 q 255 443 279 456 q 302 469 328 469 q 355 469 369 463 q 376 460 376 454 l 375 449 q 368 409 367 338 l 345 338 q 334 363 319 373 q 303 383 282 383 q 253 383 228 364 q 204 344 195 309 q 187 274 187 171 q 187 103 192 57 q 194 40 202 35 q 221 25 257 25 l 286 25 l 286 -3 q 211 0 145 0 q 80 0 16 -3 l 16 25 l 63 29 q 88 31 94 38 q 101 45 103 85 q 106 156 106 252 q 106 370 97 391 q 91 404 57 404 l 16 404 l 16 432 q 63 438 101 446 q 138 455 167 468 q 173 471 178 471 q 183 471 185 468 q 187 465 187 455 z"},"2":{"x_min":0,"x_max":500,"ha":500,"o":"m 20 -3 l 20 24 l 189 200 q 285 299 318 362 q 350 424 350 477 q 350 543 312 583 q 274 622 212 622 q 171 622 138 607 q 114 597 104 581 q 93 564 73 490 l 43 490 q 59 585 60 627 q 97 666 139 684 q 182 701 235 701 q 330 701 386 648 q 442 594 442 507 q 442 432 391 360 q 341 288 222 178 l 127 81 l 306 81 q 419 81 476 87 l 480 83 q 476 55 476 43 q 476 34 480 0 l 476 -3 q 379 0 261 0 q 137 0 20 -3 z"},"{":{"x_min":0,"x_max":333,"ha":333,"o":"m 117 255 q 165 241 189 215 q 213 188 213 122 l 213 -85 q 213 -116 223 -144 q 234 -173 258 -191 q 276 -204 320 -214 q 245 -211 222 -206 q 193 -200 171 -179 q 149 -159 141 -130 q 134 -101 134 -63 l 134 138 q 134 177 125 196 q 117 215 98 230 q 80 245 42 255 q 81 267 96 279 q 117 296 125 316 q 134 335 134 373 l 134 586 q 134 639 153 671 q 172 703 215 717 q 234 724 323 728 l 307 723 q 273 715 253 699 q 232 683 225 663 q 213 634 213 598 l 213 383 q 213 342 204 320 q 195 298 174 281 q 159 268 117 255 z"},"9":{"x_min":0,"x_max":500,"ha":500,"o":"m 102 -16 l 68 1 l 68 11 q 163 32 226 77 q 289 122 326 187 q 363 251 375 348 l 324 308 q 293 281 269 271 q 244 262 211 262 q 130 262 79 316 q 29 369 29 464 q 29 570 92 635 q 155 701 253 701 q 354 701 412 632 q 471 562 471 426 q 471 330 441 255 q 412 180 351 118 q 291 56 215 19 q 167 -4 102 -16 z m 114 497 q 114 412 151 366 q 189 320 248 320 q 308 320 343 359 q 379 399 379 479 q 379 566 340 616 q 301 666 245 666 q 209 666 179 647 q 150 627 132 588 q 114 548 114 497 z"}," ":{"x_min":0,"x_max":250,"ha":250,"o":""},"I":{"x_min":0,"x_max":337,"ha":337,"o":"m 30 27 l 61 27 q 106 27 115 49 q 124 71 124 260 l 124 425 q 124 621 116 641 q 108 661 69 661 l 30 661 l 30 691 q 111 688 190 688 q 256 688 310 691 l 310 661 l 272 661 q 237 661 229 652 q 220 644 218 610 q 216 558 216 424 l 216 256 q 216 66 224 47 q 232 27 277 27 l 310 27 l 310 -3 q 250 0 179 0 q 96 0 30 -3 z"},"H":{"x_min":0,"x_max":832,"ha":832,"o":"m 214 341 l 214 205 q 214 170 216 123 q 219 56 221 49 q 223 42 235 35 q 248 27 275 27 l 308 27 l 308 -3 q 245 0 186 0 q 128 0 22 -3 l 22 27 l 52 27 q 104 27 113 45 q 122 62 122 204 l 122 498 q 122 626 113 643 q 103 661 58 661 l 22 661 l 22 691 q 103 688 172 688 q 242 688 308 691 l 308 661 l 287 661 q 242 661 231 653 q 220 646 218 629 q 214 603 214 499 l 214 388 q 301 384 435 384 q 549 384 620 388 l 620 483 q 620 566 614 623 q 612 643 601 652 q 590 661 555 661 l 520 661 l 520 691 q 595 688 662 688 q 734 688 812 691 l 812 661 l 775 661 q 737 661 727 652 q 716 644 714 622 q 712 600 712 482 l 712 212 q 712 62 720 45 q 729 27 774 27 l 812 27 l 812 -3 q 745 0 673 0 q 591 0 520 -3 l 520 27 l 554 27 q 591 27 602 36 q 612 44 615 68 q 620 118 620 214 l 620 341 q 551 345 444 345 q 292 345 214 341 z"},"4":{"x_min":0,"x_max":500,"ha":500,"o":"m 155 -3 l 155 25 l 208 28 q 251 31 260 37 q 269 42 271 58 q 277 84 277 155 l 277 180 q 88 180 10 175 l 1 205 q 81 343 130 424 q 179 505 285 669 q 311 676 353 696 l 366 690 q 363 633 362 492 l 362 242 q 426 242 472 248 q 469 224 469 215 q 469 209 472 175 q 419 180 362 180 q 362 61 370 46 q 378 31 421 28 l 472 25 l 472 -3 q 379 0 313 0 q 288 0 155 -3 z m 277 590 q 170 435 66 242 q 123 240 167 240 q 208 240 277 242 z"},"~":{"x_min":0,"x_max":606,"ha":606,"o":"m 542 418 l 563 418 q 561 345 533 311 q 499 269 444 269 q 421 269 396 276 q 370 284 262 328 q 187 359 155 359 q 83 359 64 270 l 42 270 q 43 323 57 353 q 71 383 99 401 q 126 419 157 419 q 179 419 205 412 q 256 396 342 359 q 388 340 417 332 q 433 328 451 328 q 488 328 512 351 q 537 375 542 418 z"},"D":{"x_min":0,"x_max":774,"ha":774,"o":"m 108 45 q 116 121 116 310 l 116 452 q 116 539 110 602 q 107 638 101 644 q 96 650 61 655 l 22 661 l 22 691 q 103 689 130 689 l 262 690 l 369 692 q 433 693 501 679 q 569 666 624 624 q 679 583 708 521 q 737 458 737 377 q 737 212 626 104 q 515 -4 335 -4 l 275 -2 q 187 1 164 1 q 124 1 63 -5 l 63 19 z m 214 48 q 280 38 330 38 q 467 38 542 108 q 634 194 634 357 q 634 500 558 575 q 482 649 335 649 q 284 649 214 639 q 208 592 208 533 l 208 213 q 208 125 214 48 z"},"^":{"x_min":0,"x_max":606,"ha":606,"o":"m 109 325 l 51 325 l 275 731 l 331 731 l 554 325 l 495 325 l 303 665 z"},"0":{"x_min":0,"x_max":500,"ha":500,"o":"m 32 343 q 32 531 95 616 q 158 701 263 701 q 327 701 373 669 q 418 637 443 572 q 468 507 468 382 q 468 166 406 76 q 343 -13 239 -13 q 167 -13 120 29 q 72 71 49 148 q 32 208 32 343 z m 117 356 q 117 157 159 83 q 192 22 254 22 q 314 22 345 78 q 383 147 383 334 q 383 532 342 604 q 308 666 245 666 q 186 666 151 605 q 117 544 117 356 z"},"F":{"x_min":0,"x_max":556,"ha":556,"o":"m 210 329 l 210 161 q 210 61 221 44 q 231 27 275 27 l 310 27 l 310 -3 q 217 0 162 0 q 106 0 18 -3 l 18 27 l 57 27 q 99 27 109 43 q 118 59 118 161 l 118 529 q 118 628 108 645 q 97 661 53 661 l 18 661 l 18 691 q 99 688 164 688 l 445 693 q 489 693 528 689 q 512 637 511 541 l 479 541 q 477 592 468 632 q 401 649 333 649 q 273 649 216 643 q 210 580 210 528 l 210 373 q 239 371 268 371 q 341 371 396 375 q 415 376 421 383 q 428 390 432 421 l 437 458 l 468 458 q 463 369 463 343 l 464 228 l 432 228 l 432 266 q 432 311 415 320 q 398 330 284 330 q 253 330 210 329 z"},"`":{"x_min":0,"x_max":333,"ha":333,"o":"m 230 507 l 99 585 q 62 607 51 620 q 43 629 43 641 q 43 654 52 662 q 61 671 76 671 q 85 671 93 667 q 101 663 119 645 l 263 507 z"},"k":{"x_min":0,"x_max":556,"ha":556,"o":"m 186 241 l 186 179 q 186 56 194 41 q 202 25 243 25 l 273 25 l 273 -3 l 247 -2 q 176 0 154 0 l 24 -3 l 24 25 l 53 25 q 90 25 97 39 q 104 53 104 178 l 104 469 q 104 631 97 650 q 92 662 59 662 l 17 662 l 17 691 q 58 691 134 711 l 184 727 q 191 727 191 717 l 189 668 q 188 650 186 464 l 186 269 l 192 265 q 237 298 268 325 q 284 338 341 393 l 412 459 l 510 459 l 510 431 l 493 431 q 476 431 449 415 q 396 383 273 281 q 365 186 386 167 q 483 77 503 61 q 516 51 524 47 q 533 43 549 42 l 549 20 q 507 1 456 -11 q 427 12 320 120 q 241 198 192 241 z"},"u":{"x_min":0,"x_max":603,"ha":603,"o":"m 410 -3 l 416 84 l 387 53 q 354 17 319 2 q 284 -13 232 -13 q 188 -13 157 5 q 125 24 111 53 q 96 83 96 147 q 96 180 98 224 l 99 303 q 99 385 94 395 q 90 404 63 404 l 20 404 l 20 431 q 86 437 143 455 l 183 470 q 191 470 191 458 l 188 408 q 181 305 181 216 q 181 127 188 102 q 196 78 219 61 q 243 45 276 45 q 322 45 360 74 q 397 104 409 133 q 416 150 416 236 q 416 381 410 394 q 405 404 366 404 l 328 404 l 328 431 q 378 437 413 444 q 448 452 487 468 q 492 470 496 470 q 504 470 504 461 l 502 416 q 495 249 495 122 q 495 50 502 40 q 513 25 549 25 l 577 25 l 577 -3 q 516 0 474 0 q 442 0 410 -3 z"},"]":{"x_min":0,"x_max":333,"ha":333,"o":"m 236 728 l 242 721 q 240 667 239 634 q 234 403 234 280 l 240 -132 q 240 -168 242 -208 l 236 -214 q 189 -210 152 -210 q 90 -210 62 -212 l 50 -213 q 40 -213 38 -210 q 36 -208 36 -190 q 36 -179 38 -177 q 41 -175 83 -173 q 128 -171 136 -165 q 145 -159 148 -147 q 151 -136 154 0 q 156 136 156 260 q 156 388 154 520 q 151 652 148 663 q 145 673 134 680 q 124 687 70 688 q 42 688 39 691 q 36 693 36 715 q 36 727 47 727 l 62 727 q 111 724 146 724 q 187 724 236 728 z"},"U":{"x_min":0,"x_max":778,"ha":778,"o":"m 19 661 l 19 691 q 119 688 165 688 q 212 688 305 691 l 305 661 l 270 661 q 224 661 214 643 q 205 625 205 484 l 205 292 q 205 188 217 146 q 228 105 276 77 q 324 49 404 49 q 486 49 543 79 q 582 100 600 144 q 618 188 618 312 l 618 496 q 618 624 607 642 q 595 661 543 661 l 518 661 l 518 691 q 619 688 646 688 q 691 688 757 691 l 757 661 l 724 661 q 685 661 674 640 q 663 619 663 494 l 663 311 q 663 186 651 142 q 638 98 605 63 q 572 28 517 7 q 462 -13 388 -13 q 312 -13 254 5 q 196 23 167 50 q 138 77 125 116 q 112 155 112 248 l 113 341 l 113 490 q 113 627 105 644 q 97 661 54 661 z"},"o":{"x_min":0,"x_max":546,"ha":546,"o":"m 35 231 q 35 298 66 353 q 98 407 154 438 q 210 469 282 469 q 386 469 449 407 q 511 346 511 243 q 511 122 430 51 q 357 -13 255 -13 q 158 -13 96 52 q 35 118 35 231 z m 127 266 q 127 165 168 94 q 209 22 287 22 q 346 22 383 67 q 419 112 419 203 q 419 277 397 331 q 376 385 341 409 q 306 434 262 434 q 224 434 193 415 q 162 395 147 362 q 127 318 127 266 z"},"N":{"x_min":0,"x_max":831,"ha":831,"o":"m 161 581 l 161 244 q 161 128 166 83 q 169 48 177 41 q 185 33 224 30 l 255 27 l 255 -3 q 202 0 159 0 q 129 0 22 -3 l 22 27 l 57 27 q 89 27 99 36 q 108 45 111 71 q 116 125 116 217 l 116 459 q 116 528 115 595 q 114 623 107 634 q 101 644 88 652 q 75 661 52 661 l 22 661 l 22 691 q 84 688 117 688 q 152 688 194 691 q 242 632 285 576 q 328 521 374 464 l 541 259 q 631 148 671 105 l 671 419 q 671 616 664 634 q 657 652 607 657 l 571 661 l 571 691 q 649 688 693 688 q 738 688 810 691 l 810 661 l 772 661 q 727 661 720 630 q 716 610 716 417 l 716 196 q 716 107 724 -16 q 657 -6 646 -1 q 636 3 626 14 q 572 74 512 147 z"},"+":{"x_min":0,"x_max":606,"ha":606,"o":"m 57 310 l 57 378 l 269 378 l 269 590 l 337 590 l 337 378 l 549 378 l 549 310 l 337 310 l 337 98 l 269 98 l 269 310 z"},"G":{"x_min":0,"x_max":763,"ha":763,"o":"m 699 228 q 691 187 691 144 q 691 99 699 43 q 634 18 552 2 q 470 -13 396 -13 q 280 -13 193 32 q 106 77 59 157 q 12 238 12 340 q 12 445 62 528 q 113 610 203 656 q 292 701 430 701 q 486 701 534 694 q 581 687 657 665 l 699 653 q 686 602 678 509 l 647 509 l 647 541 q 647 589 640 597 q 625 613 562 636 q 499 659 418 659 q 274 659 198 582 q 115 498 115 360 q 115 227 190 136 q 278 29 430 29 q 509 29 601 63 q 604 104 604 151 q 604 211 602 220 q 600 229 595 232 q 590 234 544 238 l 486 243 l 486 274 q 598 270 652 270 q 699 270 733 274 l 733 250 z"},"q":{"x_min":0,"x_max":560,"ha":560,"o":"m 423 435 l 474 467 l 493 457 q 478 412 474 380 q 469 331 469 216 l 469 -55 q 469 -204 478 -223 q 487 -241 534 -241 l 556 -241 l 556 -269 l 479 -267 l 418 -266 q 395 -266 300 -269 l 300 -241 l 326 -241 q 371 -241 379 -224 q 387 -207 387 -52 l 387 63 q 329 29 272 -8 q 259 -10 247 -12 q 235 -13 226 -13 q 141 -13 85 47 q 29 108 29 208 q 29 275 49 321 q 70 367 108 394 q 118 401 198 445 q 240 469 295 469 q 327 469 359 460 q 391 452 423 435 z m 383 377 q 353 405 324 416 q 296 427 261 427 q 195 427 155 379 q 114 331 114 241 q 114 149 157 97 q 200 45 262 45 q 294 45 324 61 q 355 76 387 114 l 387 208 q 385 348 383 377 z"},"d":{"x_min":0,"x_max":611,"ha":611,"o":"m 417 439 l 417 616 q 417 646 410 654 q 403 662 379 662 l 337 662 l 337 691 q 424 697 499 728 l 508 722 q 504 672 502 602 l 500 472 l 499 430 l 499 138 q 499 57 504 47 q 511 34 544 30 l 579 25 l 579 -3 q 519 1 473 1 q 465 1 412 -3 q 415 30 417 91 q 375 59 311 0 q 270 -13 238 -13 q 155 -13 100 49 q 44 111 44 215 q 44 280 65 326 q 87 372 117 392 q 146 413 209 445 q 258 469 299 469 q 327 469 356 461 q 386 454 417 439 z m 417 355 q 383 391 347 409 q 311 427 271 427 q 207 427 168 381 q 129 334 129 244 q 129 153 174 101 q 218 49 282 49 q 321 49 354 71 q 387 92 402 127 q 417 162 417 236 z"},"1":{"x_min":0,"x_max":500,"ha":500,"o":"m 83 -3 l 83 28 l 121 30 q 187 32 200 48 q 213 65 212 183 l 216 454 q 216 590 213 604 q 211 612 204 612 q 199 612 182 604 q 99 567 68 550 q 46 537 43 537 q 37 537 36 545 l 32 593 q 186 639 294 696 l 308 689 l 306 634 l 301 353 l 298 160 q 298 91 304 68 q 310 46 323 38 q 335 31 385 30 l 429 28 l 429 -3 q 307 0 255 0 q 196 0 83 -3 z"},"5":{"x_min":0,"x_max":500,"ha":500,"o":"m 12 146 l 37 161 l 49 139 q 82 79 93 69 q 107 55 136 45 q 165 35 203 35 q 285 35 330 83 q 376 130 376 220 q 376 298 334 343 q 292 387 222 387 q 182 387 150 372 q 119 356 94 323 l 73 330 q 80 415 80 546 q 80 629 73 690 l 82 695 q 158 688 239 688 q 336 688 426 695 l 432 690 q 428 666 428 652 q 428 639 432 612 l 426 607 q 371 610 319 610 q 217 610 124 607 q 119 570 116 404 q 152 432 185 444 q 217 455 259 455 q 350 455 406 401 q 461 347 461 260 q 461 151 374 69 q 287 -13 167 -13 q 137 -13 115 -8 q 93 -2 63 14 q 55 42 48 59 z"}}}
